<?xml version="1.0" encoding="utf-8"?>
<!-- Generator: Adobe Illustrator 24.1.1, SVG Export Plug-In . SVG Version: 6.00 Build 0)  -->
<svg version="1.1" id="Layer_1" xmlns="http://www.w3.org/2000/svg" xmlns:xlink="http://www.w3.org/1999/xlink" x="0px" y="0px"
	 viewBox="0 0 512 512" style="enable-background:new 0 0 512 512;" xml:space="preserve">
<g>
	<path d="M256,512c-61,0-118.3-23.8-161.5-66.9C51.4,402,27.6,344.7,27.6,283.6c0-61,23.8-118.4,66.9-161.5
		c13.7-13.7,35.9-13.7,49.7,0s13.7,35.9,0,49.7c-29.9,29.9-46.3,69.6-46.3,111.8c0,42.2,16.4,82,46.3,111.8
		c29.9,29.8,69.5,46.3,111.8,46.3s81.9-16.5,111.8-46.3c29.9-29.9,46.3-69.6,46.3-111.8c0-42.3-16.4-82-46.3-111.8
		c-13.7-13.7-13.7-35.9,0-49.7s35.9-13.7,49.7,0c43.1,43.2,66.9,100.5,66.9,161.5c0,61-23.8,118.4-66.9,161.5
		C374.3,488.2,317,512,256,512z M256,245.9c-19.4,0-35.1-15.7-35.1-35.1V35.1C220.9,15.7,236.6,0,256,0s35.1,15.7,35.1,35.1v175.7
		C291.1,230.2,275.4,245.9,256,245.9z"/>
</g>
</svg>
